<?xml version="1.0" encoding="UTF-8"?>
<svg id="Capa_1" xmlns="http://www.w3.org/2000/svg" version="1.1" xmlns:xlink="http://www.w3.org/1999/xlink" viewBox="0 0 115.2 136.4">
  <!-- Generator: Adobe Illustrator 29.3.1, SVG Export Plug-In . SVG Version: 2.1.0 Build 151)  -->
  <defs>
    <style>
      .st0 {
        fill: #004e9b;
      }
    </style>
  </defs>
  <image width="1096" height="218" transform="translate(-465.9 164.2)" xlink:href="carrito-1.png"/>
  <image width="1009" height="315" transform="translate(-452.8 156.4)" xlink:href="carrito-2.png"/>
  <g>
    <path class="st0" d="M52.7,73.3h21.8c3.4,0,6.6-2,8-5.2l9.7-21.4c.9-1.9-.5-4.1-2.6-4.1h-49.8v-8.2l-9.1-3.5-6,4.1,8.7,2.5v5.1c-.1,0,11.4,25.5,11.4,25.5.2.5.5.9.8,1.4l-5.1,9.5v9.1h48.2v-6.8h-41.8l4.5-8c.5,0,.9.1,1.4.1Z"/>
    <circle class="st0" cx="81.9" cy="98.9" r="6.6"/>
    <circle class="st0" cx="47" cy="98.9" r="6.6"/>
  </g>
</svg>