<?xml version="1.0" encoding="UTF-8"?>
<svg id="Capa_1" xmlns="http://www.w3.org/2000/svg" version="1.1" viewBox="0 0 227.3 136.4">
  <!-- Generator: Adobe Illustrator 29.3.1, SVG Export Plug-In . SVG Version: 2.1.0 Build 151)  -->
  <path d="M60.9,5.8c4.6-1.2,8.3,2.4,10,6.3-19.8,12.6-17.9,36.4-22.1,56.7-2.2,10.6-4,20.3-16.6,11.2S9,46,8.2,33c-.6-9.7,6.9-7.6,13.9-9.9,13.5-4.3,26.5-10.2,38.8-17.3Z"/>
  <path d="M162.9,5.8c3.9-.8,15.3,6.6,19.9,8.7s9.4,4.2,14.1,5.9,16.7,3.8,19.6,5.4c5,2.8,1.4,13.2.2,17.8-3,11-12.2,29.7-21.6,36.4-12.6,9-14.4-.7-16.6-11.2-4.2-20.3-2.3-44.1-22.1-56.7,1.1-2.6,3.7-5.8,6.5-6.3Z"/>
  <path d="M89.1,127.5c-5.9-3.4-10.9-8.5-14-14.4,6.9-.1,14.1,1.5,21.1,0s16.3-8.3,13.5-12.6-11.5-6-14.1-8c-16.9-13.3,5.2-23.9,17.8-15.4,12.6-8.9,22.5-.6,24.5,3.2,5.3,10.1-18.2,16.8-20.4,20.2s1.5,5.3,2.9,6.7c8.7,8.8,20.5,6.2,31.6,5.9-2.9,5.6-7.6,10.5-13,13.8-4.1,2.5-8.9,3.8-13.7,3.8h-23.6c-4.4,0-8.9-1-12.7-3.2Z"/>
  <circle cx="72.1" cy="64.2" r="10.5"/>
  <path d="M141.4,71.7c-3-12.5,12.6-19.7,22.8-12.3,4.7,3.4,8.7,13.7.6,12.5s-3.2-8.8-10.9-8-4.6,10.1-12.5,7.9Z"/>
</svg>