<?xml version="1.0" encoding="UTF-8"?>
<svg id="Capa_1" xmlns="http://www.w3.org/2000/svg" version="1.1" viewBox="0 0 115.2 136.4">
  <!-- Generator: Adobe Illustrator 29.3.1, SVG Export Plug-In . SVG Version: 2.1.0 Build 151)  -->
  <defs>
    <style>
      .st0 {
        fill: #004e9b;
      }
    </style>
  </defs>
  <path class="st0" d="M88.3,54.9l-47.5,41.9c-1.5,1.3-4.1,1.3-5.5-.4l-9.8-11.3c-1.5-1.5-1.3-4.1.4-5.5l26.8-23.5,4.1,4.6c.7.7,1.7.9,2.4,0l1.7-1.5c.7-.7.9-1.7,0-2.4l-4.1-4.6,2-1.7,3.7,4.1c.7.7,1.7.9,2.4,0l1.7-1.5c.7-.7.9-1.7,0-2.4l-3.7-4.1,2-1.7,3.3,3.9c.7.7,1.7.9,2.4,0l1.7-1.5c.7-.7.9-1.7,0-2.4l-3.3-3.9,4.1-3.5c1.5-1.5,4.1-1.3,5.5.4l9.8,11.3c1.5,1.5,1.3,4.1-.4,5.5l.2.4Z"/>
  <path class="st0" d="M18.6,77.5h0c1.6-1.4,4.1-1.3,5.5.3l18.6,21.1c1.4,1.6,1.3,4.1-.3,5.5h0c-1.6,1.4-4.1,1.3-5.5-.3l-18.6-21.1c-1.4-1.6-1.3-4.1.3-5.5Z"/>
  <path class="st0" d="M6,97h0c1.6-1.4,4.1-1.3,5.5.3l12.3,13.9c1.4,1.6,1.3,4.1-.3,5.5h0c-1.6,1.4-4.1,1.3-5.5-.3l-12.3-13.9c-1.4-1.6-1.3-4.1.3-5.5Z"/>
  <rect class="st0" x="14.8" y="90" width="14.6" height="19.8" transform="translate(-60.6 39.6) rotate(-41.4)"/>
  <path class="st0" d="M84.6,35.9h0c2.3-2,5.7-1.8,7.7.5h0c2,2.3,1.8,5.7-.5,7.7h0c-2.3,2-5.7,1.8-7.7-.5h0c-2-2.3-1.8-5.7.5-7.7Z"/>
  <path class="st0" d="M90.6,36l19.3-17c.6-.6,1.6-.5,2.2.1h0c.6.6.5,1.6-.1,2.2l-19.3,17c-.6.6-1.6.5-2.2-.1h0c-.6-.6-.5-1.6.1-2.2Z"/>
</svg>