<?xml version="1.0" encoding="UTF-8"?>
<svg id="Capa_1" xmlns="http://www.w3.org/2000/svg" version="1.1" viewBox="0 0 115.2 136.4">
  <!-- Generator: Adobe Illustrator 29.3.1, SVG Export Plug-In . SVG Version: 2.1.0 Build 151)  -->
  <defs>
    <style>
      .st0 {
        fill: #004e9b;
      }
    </style>
  </defs>
  <path class="st0" d="M37.5,49.2l38.1,41.5-21.8,20c-11.2,10.2-28.3,9.4-38.5-1.6l-1.2-1.2c-10.2-11.2-9.4-28.3,1.6-38.5l21.8-20v-.2Z"/>
  <path class="st0" d="M102.9,28.7l-1.2-1.2c-10.2-11.2-27.5-11.8-38.5-1.6l-21.4,19.8,38.1,41.5,21.4-19.6c11.2-10.2,11.8-27.5,1.6-38.5v-.4ZM83,35c1.2-3.6,4.2-5.8,7-5s4,4.4,2.8,8-4.2,5.8-7,5c-2.6-.8-4-4.4-2.8-8ZM76.8,28.3c2.8,0,5.2,2.8,5.4,6.6,0,3.8-2,7-4.8,7s-5.2-2.8-5.4-6.6,2-7,4.8-7ZM61.6,41.2c-.8-3.8,1-7.2,3.6-7.8,2.8-.6,5.6,2,6.4,5.8s-1,7.2-3.6,7.8c-2.8.6-5.6-2-6.4-5.8ZM93,57.6c-.6,4.6-4.8,7.6-9.2,7-2.4-.4-4.4-1.8-5.8-3.6-1.8,2-4.4,3-7.2,2.6-4.6-.6-7.6-4.8-7-9.2.6-4,3.8-7,7.8-7.2,1.6-3,4.8-5,8.4-4.4,3.2.4,5.8,2.8,6.8,5.6,4.2,1,7,4.8,6.4,9.2h-.2ZM100.9,46.8c-1.8,3.4-5.2,5-7.6,3.8-2.6-1.2-3.2-5-1.4-8.4s5.2-5,7.6-3.8c2.6,1.2,3.2,5,1.4,8.4Z"/>
</svg>